<?xml version="1.0" encoding="utf-8"?>
<svg width="30px" height="30px" viewBox="0 0 30 30" version="1.1" xmlns:xlink="http://www.w3.org/1999/xlink" xmlns="http://www.w3.org/2000/svg">
  <defs>
    <path d="M0 0L30 0L30 30L0 30L0 0Z" id="path_1" />
    <clipPath id="mask_1">
      <use xlink:href="#path_1" />
    </clipPath>
  </defs>
  <g id="Android-Os-icon">
    <path d="M0 0L30 0L30 30L0 30L0 0Z" id="Background" fill="none" fill-rule="evenodd" stroke="none" />
    <g clip-path="url(#mask_1)">
      <path d="M9.375 1.25C9.215 1.25 9.05498 1.31123 8.93311 1.43311C8.68936 1.67686 8.68936 2.07314 8.93311 2.31689L10.5713 3.95508C8.71139 5.3199 7.5 7.51595 7.5 10L22.5 10C22.5 7.51595 21.2886 5.3199 19.4287 3.95508L21.0669 2.31689C21.3106 2.07189 21.3106 1.67811 21.0669 1.43311C20.8231 1.18936 20.4269 1.18936 20.1831 1.43311L18.3301 3.28613C17.3258 2.78695 16.1977 2.5 15 2.5C13.8023 2.5 12.6742 2.78695 11.6699 3.28613L9.81689 1.43311C9.69502 1.31123 9.535 1.25 9.375 1.25L9.375 1.25ZM11.25 6.25L12.5 6.25L12.5 7.5L11.25 7.5L11.25 6.25L11.25 6.25ZM17.5 6.25L18.75 6.25L18.75 7.5L17.5 7.5L17.5 6.25L17.5 6.25ZM5 11.25C4.31 11.25 3.75 11.81 3.75 12.5L3.75 20C3.75 20.69 4.31 21.25 5 21.25C5.69 21.25 6.25 20.69 6.25 20L6.25 12.5C6.25 11.81 5.69 11.25 5 11.25L5 11.25ZM7.5 11.25L7.5 21.25C7.5 21.94 8.06 22.5 8.75 22.5L10 22.5L10 26.875C10 27.91 10.84 28.75 11.875 28.75C12.91 28.75 13.75 27.91 13.75 26.875L13.75 22.5L16.25 22.5L16.25 26.875C16.25 27.91 17.09 28.75 18.125 28.75C19.16 28.75 20 27.91 20 26.875L20 22.5L21.25 22.5C21.94 22.5 22.5 21.94 22.5 21.25L22.5 11.25L7.5 11.25L7.5 11.25ZM25 11.25C24.31 11.25 23.75 11.81 23.75 12.5L23.75 20C23.75 20.69 24.31 21.25 25 21.25C25.69 21.25 26.25 20.69 26.25 20L26.25 12.5C26.25 11.81 25.69 11.25 25 11.25L25 11.25Z" id="Shape" fill="#FFFFFF" fill-rule="evenodd" stroke="none" />
    </g>
  </g>
</svg>