<?xml version="1.0" encoding="utf-8"?>
<svg height="800" width="1200" viewBox="-20 -10 150 60" xmlns="http://www.w3.org/2000/svg" xmlns:bx="https://boxy-svg.com">
  <path d="M 101.24 -1 L 8.765 -1 C 8.428 -1 8.095 -1 7.759 -0.998 C 7.477 -0.995 7.198 -0.991 6.914 -0.986 C 6.297 -0.978 5.682 -0.924 5.071 -0.824 C 4.464 -0.718 3.875 -0.523 3.324 -0.244 C 2.774 0.041 2.272 0.408 1.837 0.847 C 1.398 1.285 1.032 1.791 0.753 2.346 C 0.473 2.9 0.281 3.494 0.179 4.108 C 0.077 4.72 0.021 5.34 0.014 5.961 C 0.005 6.243 0.005 6.527 0 6.812 L 0 28.192 C 0.005 28.479 0.005 28.757 0.014 29.045 C 0.021 29.665 0.077 30.285 0.179 30.896 C 0.28 31.51 0.473 32.103 0.753 32.657 C 1.031 33.212 1.398 33.715 1.837 34.151 C 2.272 34.592 2.773 34.96 3.324 35.243 C 3.875 35.524 4.463 35.719 5.071 35.825 C 5.682 35.925 6.297 35.98 6.914 35.987 C 7.198 35.995 7.477 35.998 7.759 35.998 C 8.095 36 8.428 36 8.765 36 L 101.24 36 C 101.57 36 101.906 36 102.237 35.998 C 102.517 35.998 102.804 35.995 103.085 35.987 C 103.701 35.98 104.314 35.926 104.924 35.825 C 105.532 35.718 106.124 35.522 106.677 35.243 C 107.228 34.96 107.729 34.592 108.163 34.151 C 108.6 33.714 108.968 33.211 109.25 32.657 C 109.528 32.102 109.719 31.51 109.818 30.896 C 109.92 30.285 109.978 29.665 109.989 29.045 C 109.993 28.757 109.993 28.479 109.993 28.192 C 110 27.856 110 27.522 110 27.181 L 110 7.82 C 110 7.482 110 7.147 109.993 6.812 C 109.993 6.527 109.993 6.243 109.989 5.959 C 109.978 5.339 109.92 4.72 109.818 4.107 C 109.719 3.494 109.527 2.901 109.25 2.346 C 108.682 1.234 107.783 0.328 106.677 -0.244 C 106.124 -0.523 105.532 -0.718 104.924 -0.824 C 104.315 -0.925 103.701 -0.979 103.085 -0.986 C 102.804 -0.991 102.517 -0.995 102.237 -0.998 C 101.906 -1 101.57 -1 101.24 -1 Z" fill="#a6a6a6" bx:origin="0.501402 0.5"/>
  <path d="M 7.763 35.191 C 7.483 35.191 7.21 35.187 6.931 35.181 C 6.356 35.173 5.782 35.124 5.213 35.029 C 4.684 34.939 4.171 34.766 3.691 34.523 C 3.216 34.282 2.781 33.963 2.406 33.582 C 2.026 33.208 1.71 32.769 1.468 32.291 C 1.225 31.809 1.057 31.292 0.969 30.759 C 0.875 30.185 0.823 29.604 0.816 29.023 C 0.809 28.829 0.802 28.18 0.802 28.18 L 0.802 6.812 C 0.802 6.812 0.81 6.172 0.816 5.984 C 0.822 5.404 0.875 4.824 0.968 4.252 C 1.057 3.716 1.225 3.198 1.468 2.714 C 1.708 2.235 2.022 1.799 2.402 1.421 C 2.778 1.04 3.214 0.722 3.691 0.476 C 4.169 0.233 4.681 0.063 5.209 -0.028 C 5.781 -0.121 6.357 -0.172 6.934 -0.179 L 7.763 -0.19 L 102.232 -0.19 L 103.072 -0.178 C 103.644 -0.172 104.215 -0.122 104.781 -0.029 C 105.314 0.063 105.832 0.235 106.316 0.478 C 107.269 0.974 108.047 1.755 108.536 2.716 C 108.775 3.197 108.94 3.713 109.028 4.241 C 109.123 4.819 109.177 5.403 109.188 5.988 C 109.191 6.249 109.191 6.532 109.191 6.812 C 109.198 7.157 109.198 7.487 109.198 7.82 L 109.198 27.181 C 109.198 27.515 109.198 27.845 109.191 28.176 C 109.191 28.476 109.191 28.751 109.187 29.035 C 109.177 29.609 109.124 30.182 109.029 30.749 C 108.943 31.287 108.776 31.807 108.533 32.294 C 108.29 32.768 107.976 33.201 107.6 33.575 C 107.224 33.959 106.79 34.277 106.312 34.521 C 105.83 34.766 105.313 34.94 104.781 35.029 C 104.211 35.124 103.637 35.173 103.062 35.181 C 102.787 35.187 102.512 35.191 102.237 35.191 L 101.24 35.193 Z" bx:origin="0.501423 0.499975"/>
  <path d="M 22.769 17.779 C 22.788 16.21 23.607 14.759 24.934 13.938 C 24.093 12.728 22.733 11.988 21.266 11.941 C 19.722 11.779 18.226 12.871 17.44 12.871 C 16.637 12.871 15.427 11.959 14.122 11.985 C 12.406 12.04 10.846 13 10.011 14.508 C 8.233 17.606 9.558 22.158 11.261 24.662 C 12.114 25.886 13.109 27.255 14.413 27.208 C 15.688 27.154 16.164 26.389 17.703 26.389 C 19.228 26.389 19.674 27.208 21.004 27.178 C 22.372 27.154 23.234 25.945 24.057 24.707 C 24.668 23.835 25.14 22.87 25.451 21.849 C 23.827 21.155 22.771 19.555 22.769 17.779 Z M 20.257 10.295 C 21.004 9.394 21.371 8.237 21.282 7.066 C 20.142 7.187 19.091 7.735 18.333 8.603 C 17.587 9.457 17.209 10.576 17.282 11.711 C 18.438 11.723 19.534 11.201 20.257 10.295 Z M 38.886 24.106 L 34.535 24.106 L 33.489 27.208 L 31.647 27.208 L 35.768 15.722 L 37.684 15.722 L 41.805 27.208 L 39.93 27.208 Z M 34.985 22.671 L 38.434 22.671 L 36.734 17.634 L 36.688 17.634 Z M 50.705 23.022 C 50.705 25.625 49.32 27.296 47.231 27.296 C 46.152 27.354 45.135 26.784 44.614 25.832 L 44.574 25.832 L 44.574 29.979 L 42.865 29.979 L 42.865 18.834 L 44.519 18.834 L 44.519 20.226 L 44.55 20.226 C 45.095 19.281 46.114 18.712 47.2 18.746 C 49.312 18.746 50.705 20.428 50.705 23.022 Z M 48.949 23.022 C 48.949 21.326 48.078 20.213 46.75 20.213 C 45.445 20.213 44.566 21.35 44.566 23.022 C 44.566 24.71 45.445 25.839 46.75 25.839 C 48.078 25.839 48.949 24.732 48.949 23.022 Z M 59.865 23.022 C 59.865 25.625 58.482 27.296 56.392 27.296 C 55.313 27.354 54.295 26.784 53.774 25.832 L 53.734 25.832 L 53.734 29.979 L 52.025 29.979 L 52.025 18.834 L 53.679 18.834 L 53.679 20.226 L 53.71 20.226 C 54.256 19.281 55.273 18.712 56.36 18.746 C 58.473 18.746 59.865 20.428 59.865 23.022 Z M 58.108 23.022 C 58.108 21.326 57.238 20.213 55.91 20.213 C 54.604 20.213 53.727 21.35 53.727 23.022 C 53.727 24.71 54.604 25.839 55.91 25.839 C 57.238 25.839 58.108 24.732 58.108 23.022 Z M 65.918 24.008 C 66.045 25.147 67.145 25.895 68.648 25.895 C 70.088 25.895 71.125 25.147 71.125 24.12 C 71.125 23.229 70.499 22.694 69.019 22.33 L 67.54 21.971 C 65.445 21.461 64.471 20.474 64.471 18.874 C 64.471 16.893 66.187 15.53 68.625 15.53 C 71.037 15.53 72.691 16.893 72.746 18.874 L 71.022 18.874 C 70.919 17.727 69.976 17.035 68.601 17.035 C 67.224 17.035 66.283 17.736 66.283 18.754 C 66.283 19.567 66.884 20.044 68.355 20.41 L 69.614 20.721 C 71.956 21.279 72.928 22.224 72.928 23.906 C 72.928 26.055 71.228 27.401 68.521 27.401 C 65.99 27.401 64.28 26.086 64.17 24.008 Z M 76.616 16.854 L 76.616 18.834 L 78.198 18.834 L 78.198 20.196 L 76.616 20.196 L 76.616 24.813 C 76.616 25.53 76.932 25.864 77.628 25.864 C 77.815 25.861 78.003 25.848 78.19 25.824 L 78.19 27.178 C 77.877 27.236 77.559 27.263 77.241 27.256 C 75.556 27.256 74.899 26.619 74.899 24.997 L 74.899 20.196 L 73.689 20.196 L 73.689 18.834 L 74.899 18.834 L 74.899 16.854 Z M 79.114 23.022 C 79.114 20.387 80.657 18.731 83.062 18.731 C 85.475 18.731 87.01 20.387 87.01 23.022 C 87.01 25.664 85.483 27.313 83.062 27.313 C 80.641 27.313 79.114 25.664 79.114 23.022 Z M 85.268 23.022 C 85.268 21.214 84.446 20.148 83.062 20.148 C 81.678 20.148 80.855 21.223 80.855 23.022 C 80.855 24.838 81.678 25.895 83.062 25.895 C 84.446 25.895 85.268 24.838 85.268 23.022 Z M 88.418 18.834 L 90.047 18.834 L 90.047 20.26 L 90.086 20.26 C 90.315 19.341 91.151 18.711 92.088 18.746 C 92.285 18.745 92.483 18.767 92.674 18.81 L 92.674 20.419 C 92.426 20.343 92.167 20.308 91.907 20.315 C 90.852 20.272 90.007 21.187 90.126 22.241 L 90.126 27.208 L 88.418 27.208 Z M 100.55 24.749 C 100.32 26.27 98.85 27.313 96.968 27.313 C 94.546 27.313 93.043 25.682 93.043 23.063 C 93.043 20.436 94.554 18.731 96.895 18.731 C 99.198 18.731 100.645 20.324 100.645 22.862 L 100.645 23.452 L 94.768 23.452 L 94.768 23.555 C 94.652 24.863 95.703 25.976 97.006 25.927 C 97.835 26.006 98.618 25.526 98.928 24.749 Z M 94.776 22.25 L 98.936 22.25 C 99.001 21.077 98.06 20.099 96.895 20.124 C 95.724 20.117 94.773 21.072 94.776 22.25 Z M 34.771 7.076 C 36.299 6.967 37.544 8.29 37.353 9.818 C 37.353 11.582 36.405 12.595 34.771 12.595 L 32.79 12.595 L 32.79 7.076 Z M 33.643 11.816 L 34.677 11.816 C 35.768 11.881 36.645 10.919 36.485 9.829 C 36.633 8.745 35.762 7.796 34.677 7.857 L 33.643 7.857 Z M 38.315 10.512 C 38.171 8.999 39.707 7.897 41.08 8.529 C 41.84 8.877 42.299 9.673 42.219 10.512 C 42.365 12.023 40.831 13.129 39.456 12.501 C 38.692 12.15 38.233 11.352 38.315 10.512 Z M 41.378 10.512 C 41.378 9.607 40.976 9.08 40.268 9.08 C 39.558 9.08 39.159 9.607 39.159 10.512 C 39.159 11.42 39.558 11.946 40.268 11.946 C 40.976 11.946 41.378 11.418 41.378 10.512 Z M 47.408 12.595 L 46.56 12.595 L 45.706 9.528 L 45.641 9.528 L 44.789 12.595 L 43.951 12.595 L 42.808 8.431 L 43.638 8.431 L 44.378 11.608 L 44.44 11.608 L 45.292 8.431 L 46.074 8.431 L 46.926 11.608 L 46.989 11.608 L 47.728 8.431 L 48.545 8.431 Z M 49.504 8.431 L 50.29 8.431 L 50.29 9.092 L 50.352 9.092 C 50.564 8.606 51.06 8.307 51.587 8.349 C 52.447 8.285 53.146 9.041 53.02 9.9 L 53.02 12.595 L 52.203 12.595 L 52.203 10.105 C 52.203 9.436 51.915 9.103 51.309 9.103 C 50.728 9.077 50.26 9.577 50.32 10.16 L 50.32 12.595 L 49.504 12.595 Z M 54.322 6.804 L 55.137 6.804 L 55.137 12.595 L 54.322 12.595 Z M 56.274 10.512 C 56.129 8.999 57.667 7.896 59.042 8.529 C 59.802 8.877 60.258 9.673 60.178 10.512 C 60.324 12.023 58.789 13.128 57.414 12.499 C 56.651 12.149 56.194 11.35 56.274 10.512 Z M 59.338 10.512 C 59.338 9.607 58.934 9.08 58.228 9.08 C 57.517 9.08 57.117 9.607 57.117 10.512 C 57.117 11.42 57.517 11.946 58.228 11.946 C 58.934 11.946 59.338 11.418 59.338 10.512 Z M 61.039 11.418 C 61.039 10.669 61.593 10.235 62.578 10.174 L 63.699 10.109 L 63.699 9.75 C 63.699 9.31 63.409 9.061 62.852 9.061 C 62.395 9.061 62.079 9.229 61.99 9.524 L 61.198 9.524 C 61.281 8.81 61.95 8.349 62.89 8.349 C 63.926 8.349 64.512 8.87 64.512 9.75 L 64.512 12.595 L 63.726 12.595 L 63.726 12.011 L 63.662 12.011 C 63.394 12.438 62.919 12.687 62.418 12.665 C 61.683 12.741 61.042 12.162 61.039 11.418 Z M 63.699 11.062 L 63.699 10.714 L 62.689 10.779 C 62.119 10.817 61.859 11.012 61.859 11.38 C 61.859 11.753 62.183 11.973 62.627 11.973 C 63.176 12.029 63.663 11.615 63.699 11.062 Z M 65.586 10.512 C 65.586 9.196 66.258 8.361 67.304 8.361 C 67.833 8.338 68.327 8.622 68.573 9.092 L 68.635 9.092 L 68.635 6.804 L 69.451 6.804 L 69.451 12.595 L 68.669 12.595 L 68.669 11.937 L 68.604 11.937 C 68.338 12.404 67.839 12.684 67.304 12.665 C 66.251 12.665 65.586 11.83 65.586 10.512 Z M 66.43 10.512 C 66.43 11.394 66.844 11.927 67.535 11.927 C 68.224 11.927 68.65 11.386 68.65 10.515 C 68.65 9.647 68.219 9.1 67.535 9.1 C 66.848 9.1 66.43 9.634 66.43 10.512 Z M 72.831 10.512 C 72.688 8.999 74.224 7.897 75.597 8.529 C 76.358 8.877 76.815 9.673 76.736 10.512 C 76.883 12.023 75.347 13.129 73.971 12.501 C 73.209 12.15 72.749 11.352 72.831 10.512 Z M 75.895 10.512 C 75.895 9.607 75.491 9.08 74.785 9.08 C 74.074 9.08 73.675 9.607 73.675 10.512 C 73.675 11.42 74.075 11.946 74.785 11.946 C 75.491 11.946 75.895 11.418 75.895 10.512 Z M 77.831 8.431 L 78.618 8.431 L 78.618 9.092 L 78.678 9.092 C 78.891 8.606 79.388 8.307 79.914 8.349 C 80.774 8.285 81.473 9.041 81.348 9.9 L 81.348 12.595 L 80.53 12.595 L 80.53 10.105 C 80.53 9.436 80.24 9.103 79.636 9.103 C 79.056 9.077 78.587 9.577 78.648 10.16 L 78.648 12.595 L 77.831 12.595 Z M 85.962 7.394 L 85.962 8.449 L 86.861 8.449 L 86.861 9.143 L 85.962 9.143 L 85.962 11.283 C 85.962 11.719 86.141 11.911 86.549 11.911 C 86.653 11.91 86.756 11.904 86.861 11.891 L 86.861 12.576 C 86.713 12.603 86.564 12.617 86.415 12.619 C 85.507 12.619 85.145 12.297 85.145 11.493 L 85.145 9.143 L 84.488 9.143 L 84.488 8.449 L 85.145 8.449 L 85.145 7.394 Z M 87.976 6.804 L 88.785 6.804 L 88.785 9.1 L 88.851 9.1 C 89.073 8.607 89.577 8.311 90.112 8.353 C 90.966 8.307 91.652 9.054 91.537 9.906 L 91.537 12.595 L 90.72 12.595 L 90.72 10.109 C 90.72 9.444 90.412 9.106 89.835 9.106 C 89.237 9.058 88.74 9.561 88.792 10.162 L 88.792 12.595 L 87.976 12.595 Z M 96.3 11.471 C 96.071 12.256 95.317 12.764 94.507 12.677 C 93.348 12.706 92.436 11.682 92.595 10.527 C 92.44 9.368 93.342 8.339 94.504 8.349 C 95.656 8.349 96.35 9.143 96.35 10.449 L 96.35 10.737 L 93.427 10.737 L 93.427 10.782 C 93.373 11.429 93.884 11.983 94.528 11.975 C 94.929 12.024 95.32 11.825 95.514 11.471 Z M 93.427 10.128 L 95.518 10.128 C 95.562 9.536 95.089 9.036 94.499 9.05 C 93.904 9.041 93.419 9.53 93.427 10.128 Z" fill="#fff" bx:origin="0.502717 0.461519"/>
</svg>