<?xml version="1.0" encoding="utf-8"?>
<svg width="21px" height="21px" viewBox="0 0 21 21" version="1.1" xmlns:xlink="http://www.w3.org/1999/xlink" xmlns="http://www.w3.org/2000/svg">
  <defs>
    <filter id="filter_1">
      <feColorMatrix in="SourceGraphic" type="matrix" values="0 0 0 0 1 0 0 0 0 0.8509804 0 0 0 0 0 0 0 0 1 0" />
    </filter>
    <path d="M0 0L21 0L21 21L0 21L0 0Z" id="path_1" />
    <clipPath id="mask_1">
      <use xlink:href="#path_1" />
    </clipPath>
  </defs>
  <g id="Google-Plus-icon" filter="url(#filter_1)">
    <path d="M0 0L21 0L21 21L0 21L0 0Z" id="Background" fill="none" fill-rule="evenodd" stroke="none" />
    <g clip-path="url(#mask_1)">
      <path d="M7.21875 4.59375C3.95719 4.59375 1.3125 7.23844 1.3125 10.5C1.3125 13.7616 3.95719 16.4063 7.21875 16.4063C10.4803 16.4063 13.125 13.7616 13.125 10.5C13.125 10.0948 13.0807 9.69938 13.0036 9.31875L12.9708 9.1875L7.21875 9.1875L7.21875 11.1563L11.1563 11.1563C10.8429 13.0184 9.16945 14.4375 7.21875 14.4375C5.04328 14.4375 3.28125 12.6755 3.28125 10.5C3.28125 8.32453 5.04328 6.5625 7.21875 6.5625C8.20313 6.5625 9.10055 6.92672 9.79125 7.52391L11.2022 6.1425C10.1522 5.18109 8.75438 4.59375 7.21875 4.59375L7.21875 4.59375ZM16.4062 7.21875L16.4062 9.1875L14.4375 9.1875L14.4375 10.5L16.4062 10.5L16.4062 12.4688L17.7187 12.4688L17.7187 10.5L19.6875 10.5L19.6875 9.1875L17.7187 9.1875L17.7187 7.21875L16.4062 7.21875Z" id="Shape" fill="#FFFFFF" fill-rule="evenodd" stroke="none" />
    </g>
  </g>
</svg>