<?xml version="1.0" encoding="utf-8"?>
<svg width="40px" height="40px" viewBox="0 0 40 40" version="1.1" xmlns:xlink="http://www.w3.org/1999/xlink" xmlns="http://www.w3.org/2000/svg">
  <defs>
    <filter id="filter_1">
      <feColorMatrix in="SourceGraphic" type="matrix" values="0 0 0 0 0 0 0 0 0 0 0 0 0 0 0 0 0 0 1 0" />
    </filter>
    <path d="M0 0L21.2789 0L21.2789 21.2789L0 21.2789L0 0Z" id="path_1" />
    <clipPath id="mask_1">
      <use xlink:href="#path_1" />
    </clipPath>
  </defs>
  <g id="Group">
    <path d="M0 20C0 8.9543 8.9543 0 20 0C31.0457 0 40 8.9543 40 20C40 31.0457 31.0457 40 20 40C8.9543 40 0 31.0457 0 20Z" id="Ellipse" fill="#FAAF00" fill-rule="evenodd" stroke="none" />
    <g id="gift-box" transform="translate(9.473686 8.421051)">
      <path d="M0 0L21.2789 0L21.2789 21.2789L0 21.2789L0 0Z" id="Background" fill="none" fill-rule="evenodd" stroke="none" />
      <g clip-path="url(#mask_1)">
        <g id="Group" transform="translate(0.18255615 0)" filter="url(#filter_1)">
          <g id="Group">
            <g id="Group" transform="translate(0.5376663 12.738922)">
              <path d="M11.16 0L11.16 8.54002L18.1854 8.54002C19.0985 8.54002 19.839 7.7999 19.839 6.88628L19.839 0L11.16 0L11.16 0Z" id="Shape" fill="#000000" stroke="none" />
              <path d="M8.67601 0L0 0L0 6.88628C0 7.7999 0.740754 8.54002 1.65375 8.54002L8.67601 8.54002L8.67601 0L8.67601 0ZM2.25453 6.80461C1.91168 6.80461 1.63352 6.5264 1.63352 6.18365L1.63352 2.73797C1.63352 2.39518 1.91173 2.11702 2.25453 2.11702C2.59733 2.11702 2.87553 2.39528 2.87553 2.73797L2.87553 6.18365C2.87553 6.5264 2.59738 6.80461 2.25453 6.80461L2.25453 6.80461Z" id="Shape" fill="#000000" fill-rule="evenodd" stroke="none" />
            </g>
            <path d="M19.2609 6.26318L16.155 6.26318C16.5837 6.05741 16.9433 5.84484 17.1607 5.62761C18.4401 4.34846 18.4401 2.27349 17.1607 0.994133C16.5203 0.354531 15.6818 0.0347826 14.8433 0.0347826C14.0047 0.0347826 13.1661 0.354531 12.5265 0.994133C11.9952 1.52551 11.4842 2.83709 11.0669 4.18863C10.8721 4.13515 10.6715 4.0977 10.4605 4.0977C10.2502 4.0977 10.0496 4.1352 9.85563 4.18827C9.43678 2.82452 8.9209 1.49513 8.38471 0.959298C7.74505 0.319696 6.90734 0 6.06794 0C5.22939 0 4.39083 0.319749 3.75118 0.959298C2.47187 2.23913 2.47187 4.31367 3.75118 5.59277C3.98004 5.82263 4.36564 6.04741 4.82829 6.26318L1.65286 6.26318C0.739812 6.26318 0 7.00325 0 7.91619L0 9.32279C0 10.2358 0.739812 10.9755 1.65286 10.9755L9.21367 10.9755L9.21367 6.32876L11.6976 6.32876L11.6976 10.9755L19.261 10.9755C20.1739 10.9755 20.9138 10.2357 20.9138 9.32274L20.9138 7.91614C20.9138 7.00325 20.1739 6.26318 19.2609 6.26318L19.2609 6.26318ZM13.6975 2.16511C14.0032 1.8593 14.4106 1.69067 14.8433 1.69067C15.2766 1.69067 15.6835 1.8593 15.9901 2.16511C16.2957 2.47108 16.4639 2.87789 16.4639 3.31089C16.4639 3.7439 16.2957 4.15065 15.9916 4.45469C15.6495 4.77742 14.3097 5.28025 12.6534 5.74861C12.6066 5.588 12.5434 5.43604 12.4634 5.29204C12.9147 3.73347 13.3886 2.49172 13.6975 2.16511L13.6975 2.16511ZM4.92211 2.13034C5.22782 1.82474 5.63531 1.65611 6.068 1.65611C6.50136 1.65611 6.90817 1.82432 7.21294 2.1295C7.52436 2.45905 8.00383 3.71688 8.45825 5.29163C8.38303 5.42662 8.32331 5.56905 8.27633 5.71897C6.61221 5.25004 5.26417 4.74464 4.92205 4.42206C4.29052 3.79011 4.29052 2.76229 4.92211 2.13034L4.92211 2.13034Z" id="Shape" fill="#000000" fill-rule="evenodd" stroke="none" />
          </g>
        </g>
      </g>
    </g>
  </g>
</svg>