<?xml version="1.0" encoding="utf-8"?>
<svg width="40px" height="40px" viewBox="0 0 40 40" version="1.1" xmlns:xlink="http://www.w3.org/1999/xlink" xmlns="http://www.w3.org/2000/svg">
  <defs>
    <filter id="filter_1">
      <feColorMatrix in="SourceGraphic" type="matrix" values="0 0 0 0 0 0 0 0 0 0 0 0 0 0 0 0 0 0 1 0" />
    </filter>
    <path d="M0 0L40 0L40 40L0 40L0 0Z" id="path_1" />
    <path d="M0 0L17.34 0L17.34 17.34L0 17.34L0 0Z" id="path_2" />
    <clipPath id="mask_1">
      <use xlink:href="#path_1" />
    </clipPath>
    <clipPath id="mask_2">
      <use xlink:href="#path_2" />
    </clipPath>
  </defs>
  <g id="badge-gear">
    <path d="M0 0L40 0L40 40L0 40L0 0Z" id="Background" fill="none" fill-rule="evenodd" stroke="none" />
    <g clip-path="url(#mask_1)">
      <g id="Group-4" transform="translate(9.536743E-06 9.536743E-06)">
        <path d="M0 19.9999C5.35789e-06 8.95425 8.95426 -5.35791e-06 19.9999 0C31.0455 5.35788e-06 39.9998 8.95426 39.9998 19.9999C39.9998 31.0455 31.0455 39.9998 19.9999 39.9998C8.95425 39.9998 -5.3579e-06 31.0455 0 19.9999L0 19.9999Z" id="Ellipse" fill="#FFAE00" fill-rule="evenodd" stroke="none" />
      </g>
    </g>
  </g>
  <g id="gift" transform="translate(11 10.66)" filter="url(#filter_1)">
    <path d="M0 0L17.34 0L17.34 17.34L0 17.34L0 0Z" id="Background" fill="none" fill-rule="evenodd" stroke="none" />
    <g clip-path="url(#mask_2)">
      <g id="Group" transform="translate(0.42252064 1.7166138E-05)">
        <g id="Group">
          <path d="M15.9633 3.29044L11.4103 3.29044L11.8087 2.93372C11.8379 2.90754 11.8641 2.87823 11.8869 2.84631C12.4691 2.03005 12.2786 0.892359 11.4622 0.310189C11.0729 0.0326004 10.5826 -0.0648915 10.1169 0.0430273C9.65106 0.15083 9.25338 0.453733 9.02567 0.873996L8.24747 2.31054L7.46928 0.873996C7.24157 0.453675 6.84384 0.150714 6.3781 0.0429693C5.91225 -0.0648916 5.42189 0.0325424 5.03273 0.310131C4.21648 0.892301 4.02596 2.03 4.60807 2.84625C4.63089 2.87823 4.65713 2.90754 4.68627 2.93366L5.08464 3.29038L0.531774 3.29038C0.238082 3.29038 0 3.52846 0 3.82215L0 7.19376C0 7.48745 0.238082 7.72554 0.531774 7.72554L0.672653 7.72554L0.672653 16.8082C0.672653 17.1019 0.910735 17.34 1.20443 17.34L15.2906 17.34C15.5843 17.34 15.8224 17.1019 15.8224 16.8082L15.8224 7.72554L15.9633 7.72554C16.257 7.72554 16.4951 7.48745 16.4951 7.19376L16.4951 3.82221C16.4951 3.52852 16.2569 3.29044 15.9633 3.29044L15.9633 3.29044ZM9.96085 1.38057C10.0446 1.22584 10.1852 1.11879 10.3567 1.07911C10.4031 1.06834 10.4496 1.06307 10.4958 1.06307C10.6198 1.06307 10.7403 1.10153 10.8447 1.17603C11.0089 1.2931 11.1175 1.467 11.1509 1.66592C11.1813 1.84781 11.1453 2.03046 11.0494 2.18593L9.81586 3.29044L8.92627 3.29044L9.96085 1.38057L9.96085 1.38057ZM5.34409 1.66598C5.37734 1.46717 5.48607 1.29316 5.6503 1.17609C5.79355 1.0739 5.96675 1.03943 6.13834 1.07917C6.30974 1.1188 6.45033 1.2259 6.53415 1.38063L7.56874 3.29044L6.67915 3.29044L5.44552 2.18593C5.34965 2.03051 5.31368 1.84775 5.34409 1.66598L5.34409 1.66598ZM6.26856 16.2765L1.73614 16.2765L1.73614 7.72559L6.26856 7.72559L6.26856 16.2765L6.26856 16.2765ZM9.16284 16.2765L7.33211 16.2765L7.33211 7.72559L9.16284 7.72559L9.16284 16.2765L9.16284 16.2765ZM14.7589 16.2765L10.2265 16.2765L10.2265 7.72559L14.7589 7.72559L14.7589 16.2765L14.7589 16.2765ZM15.4315 6.66205L1.06349 6.66205L1.06349 4.35399L15.4315 4.35399L15.4315 6.66205L15.4315 6.66205Z" id="Shape" fill="#000000" fill-rule="evenodd" stroke="none" />
        </g>
      </g>
    </g>
  </g>
</svg>