<?xml version="1.0" encoding="utf-8"?>
<svg width="24px" height="24px" viewBox="0 0 24 24" version="1.1" xmlns:xlink="http://www.w3.org/1999/xlink" xmlns="http://www.w3.org/2000/svg">
  <defs>
    <filter id="filter_1">
      <feColorMatrix in="SourceGraphic" type="matrix" values="0 0 0 0 0.98039216 0 0 0 0 0.8862745 0 0 0 0 0 0 0 0 1 0" />
    </filter>
    <path d="M0 0L24 0L24 24L0 24L0 0Z" id="path_1" />
    <clipPath id="mask_1">
      <use xlink:href="#path_1" />
    </clipPath>
  </defs>
  <g id="icons8_home" filter="url(#filter_1)">
    <path d="M0 0L24 0L24 24L0 24L0 0Z" id="Background" fill="none" fill-rule="evenodd" stroke="none" />
    <g clip-path="url(#mask_1)">
      <path d="M12 1.98047L0.990234 12.1992L2.00977 13.3008L3 12.3809L3 21L10.5 21L10.5 13.5L13.5 13.5L13.5 21L21 21L21 12.3809L21.9902 13.3008L23.0098 12.1992L12 1.98047ZM12 4.01953L19.5 10.9922L19.5 19.5L15 19.5L15 12L9 12L9 19.5L4.5 19.5L4.5 10.9922L12 4.01953Z" id="Shape" fill="#FFFFFF" fill-rule="evenodd" stroke="none" />
    </g>
  </g>
</svg>