<?xml version="1.0" encoding="utf-8"?>
<svg width="40px" height="40px" viewBox="0 0 40 40" version="1.1" xmlns:xlink="http://www.w3.org/1999/xlink" xmlns="http://www.w3.org/2000/svg">
  <defs>
    <path d="M0 0L17.996 0L17.996 17.996L0 17.996L0 0Z" id="path_1" />
    <clipPath id="mask_1">
      <use xlink:href="#path_1" />
    </clipPath>
  </defs>
  <g id="Group">
    <path d="M0 20C0 8.9543 8.9543 0 20 0C31.0457 0 40 8.9543 40 20C40 31.0457 31.0457 40 20 40C8.9543 40 0 31.0457 0 20Z" id="Ellipse" fill="#FAAF00" fill-rule="evenodd" stroke="none" />
  </g>
  <g id="hourglass" transform="translate(11.003998 11.003998)">
    <path d="M0 0L17.996 0L17.996 17.996L0 17.996L0 0Z" id="Background" fill="none" fill-rule="evenodd" stroke="none" />
    <g clip-path="url(#mask_1)">
      <g id="Group" transform="translate(3.5148163 0)">
        <g id="Group">
          <path d="M10.1258 16.1684L10.1228 16.1684L10.1228 13.6025C10.1228 12.7346 9.56638 11.6511 8.86796 11.136L6.1861 9.16561L6.1861 8.83054L8.86782 6.8601C9.56638 6.34507 10.1227 5.26159 10.1227 4.39363L10.1227 1.82775L10.1257 1.82775C10.5909 1.82775 10.9662 1.44941 10.9662 0.98422L10.9662 0.843536C10.9662 0.378348 10.5909 0 10.1257 0L0.844105 0C0.378919 0 2.7242e-07 0.378348 2.7242e-07 0.843534L2.7242e-07 0.984075C2.7242e-07 1.44926 0.378634 1.82761 0.84382 1.82761L0.847676 4.39349C0.847676 5.26159 1.39413 6.34436 2.09412 6.85825L4.78026 8.83197L4.78026 9.16389L2.09198 11.1378C1.39227 11.6516 0.843534 12.7344 0.843534 13.6025L0.843534 16.1684L0.844105 16.1684C0.378919 16.1684 0 16.5467 0 17.0119L0 17.1525C0 17.6177 0.378919 17.996 0.844105 17.996L10.1258 17.996C10.591 17.996 10.9664 17.6177 10.9664 17.1525L10.9664 17.0119C10.9664 16.5467 10.591 16.1684 10.1258 16.1684L10.1258 16.1684ZM9.56038 16.1685L8.85738 16.1685L8.85738 13.9633C8.85738 13.3224 8.45518 12.5223 7.93901 12.1421L5.65693 10.4591C5.55795 10.3858 5.42326 10.3856 5.32414 10.4586L3.03006 12.1433C2.51332 12.5229 2.10883 13.3223 2.10883 13.9633L2.10883 16.1684L1.40584 16.1684L1.40584 13.6025C1.40584 12.9177 1.87445 11.9966 2.42648 11.5911L5.2283 9.53311C5.30043 9.48012 5.34242 9.39599 5.34242 9.30644L5.34242 8.68972C5.34242 8.60017 5.30143 8.51604 5.22945 8.46305L2.42576 6.40506C1.8736 5.99958 1.40584 5.07849 1.40584 4.39364L1.40584 1.82776L9.56038 1.82776L9.56038 4.39364C9.56038 5.07878 9.08562 6.00101 8.53403 6.40763L5.74248 8.46219C5.67064 8.51518 5.62365 8.59902 5.62365 8.68843L5.62365 9.30773C5.62365 9.39699 5.66607 9.48098 5.73791 9.53396L8.53417 11.5887C9.08548 11.9953 9.56038 12.9175 9.56038 13.6027L9.56038 16.1685L9.56038 16.1685Z" id="Shape" fill="#000000" fill-rule="evenodd" stroke="none" />
        </g>
      </g>
      <g id="Group" transform="translate(6.4303436 5.3451385)">
        <g id="Group">
          <path d="M5.12575 0.194815C5.08776 0.0792682 4.97993 0.00142803 4.85852 0.00142803L0.281219 0C0.159673 0 0.0519821 0.0781262 0.0139904 0.19353C-0.0238585 0.309076 0.016847 0.435906 0.114826 0.507891L2.40905 2.19239C2.45861 2.22881 2.51703 2.24695 2.57544 2.24695C2.634 2.24695 2.6927 2.22867 2.74226 2.19196L5.02549 0.508891C5.12318 0.436907 5.16374 0.310219 5.12575 0.194815L5.12575 0.194815Z" id="Shape" fill="#000000" fill-rule="evenodd" stroke="none" />
        </g>
      </g>
    </g>
  </g>
</svg>