<?xml version="1.0" encoding="utf-8"?>
<svg width="21px" height="21px" viewBox="0 0 21 21" version="1.1" xmlns:xlink="http://www.w3.org/1999/xlink" xmlns="http://www.w3.org/2000/svg">
  <defs>
    <filter id="filter_1">
      <feColorMatrix in="SourceGraphic" type="matrix" values="0 0 0 0 1 0 0 0 0 0.8509804 0 0 0 0 0 0 0 0 1 0" />
    </filter>
    <path d="M0 0L21 0L21 21L0 21L0 0Z" id="path_1" />
    <clipPath id="mask_1">
      <use xlink:href="#path_1" />
    </clipPath>
  </defs>
  <g id="Instagram-icon-2" filter="url(#filter_1)">
    <path d="M0 0L21 0L21 21L0 21L0 0Z" id="Background" fill="none" fill-rule="evenodd" stroke="none" />
    <g clip-path="url(#mask_1)">
      <path d="M6.26514 1.3125C3.5376 1.3125 1.3125 3.5376 1.3125 6.26514L1.3125 13.4275C1.3125 16.1499 3.5376 18.375 6.26514 18.375L13.4275 18.375C16.1499 18.375 18.375 16.1499 18.375 13.4224L18.375 6.26514C18.375 3.5376 16.1499 1.3125 13.4224 1.3125L6.26514 1.3125ZM6.26514 2.625L13.4224 2.625C15.4424 2.625 17.0625 4.24512 17.0625 6.26514L17.0625 13.4224C17.0625 15.4424 15.4424 17.0625 13.4275 17.0625L6.26514 17.0625C4.24512 17.0625 2.625 15.4424 2.625 13.4275L2.625 6.26514C2.625 4.24512 4.24512 2.625 6.26514 2.625L6.26514 2.625ZM15.0938 3.9375C14.7297 3.9375 14.4375 4.22974 14.4375 4.59375C14.4375 4.95776 14.7297 5.25 15.0938 5.25C15.4578 5.25 15.75 4.95776 15.75 4.59375C15.75 4.22974 15.4578 3.9375 15.0938 3.9375L15.0938 3.9375ZM9.84375 5.25C7.31616 5.25 5.25 7.31616 5.25 9.84375C5.25 12.3713 7.31616 14.4375 9.84375 14.4375C12.3713 14.4375 14.4375 12.3713 14.4375 9.84375C14.4375 7.31616 12.3713 5.25 9.84375 5.25L9.84375 5.25ZM9.84375 6.5625C11.6638 6.5625 13.125 8.02368 13.125 9.84375C13.125 11.6638 11.6638 13.125 9.84375 13.125C8.02368 13.125 6.5625 11.6638 6.5625 9.84375C6.5625 8.02368 8.02368 6.5625 9.84375 6.5625L9.84375 6.5625Z" id="Shape" fill="#FFFFFF" fill-rule="evenodd" stroke="none" />
    </g>
  </g>
</svg>