<?xml version="1.0" encoding="utf-8"?>
<svg width="32px" height="33px" viewBox="0 0 32 33" version="1.1" xmlns:xlink="http://www.w3.org/1999/xlink" xmlns="http://www.w3.org/2000/svg">
  <defs>
    <path d="M0 0L32 0L32 32.3L0 32.3L0 0Z" id="path_1" />
    <clipPath id="mask_1">
      <use xlink:href="#path_1" />
    </clipPath>
  </defs>
  <path d="M0 0L32 0L32 32.3L0 32.3L0 0Z" id="Background" fill="none" fill-rule="evenodd" stroke="none" />
  <g clip-path="url(#mask_1)">
    <path d="M22.6415 0.0558472C21.0418 0.125061 19.0664 1.04443 17.938 2.33691C16.9035 3.45117 16.0188 5.26074 16.243 6.95984C18.0496 7.10168 19.8554 6.10901 20.9838 4.85114C22.095 3.55865 22.8292 1.82587 22.6415 0.0558472L22.6415 0.0558472ZM22.1625 6.97339C20.6293 6.97339 19.3558 7.34387 18.4244 7.65601C17.493 7.96814 16.7872 8.12238 16.9988 8.12238C17.1877 8.12238 16.5362 7.98083 15.7004 7.67627C14.8646 7.37177 13.7432 6.98016 12.3701 6.98016C9.257 6.98016 6.45609 8.6524 4.93513 11.0826C3.40591 13.4755 3.2718 16.2594 3.76768 18.8112C4.2635 21.3627 5.38777 23.7318 6.74992 25.5226C7.35689 26.3281 8.05943 27.2244 9.0025 27.9962C9.94559 28.7681 11.2383 29.4528 12.793 29.4528L12.8304 29.4528L12.8641 29.4528C14.0868 29.4113 15.0089 29.0424 15.5919 28.8276C16.1748 28.6128 16.4666 28.4998 17.2121 28.4998C17.9443 28.4998 18.2457 28.6196 18.8847 28.8546C19.5237 29.0897 20.5299 29.4662 21.837 29.4662C23.3748 29.4662 24.6678 28.765 25.5489 27.9895C26.4285 27.2152 27.0477 26.3489 27.6218 25.5868L27.6256 25.5834C29.1561 23.5596 29.7846 21.4843 29.7846 21.4843L30.2598 19.9568L28.6134 19.3992C28.6134 19.3992 26.179 18.7563 26.155 15.959L26.155 15.9557C26.1436 14.8397 26.6139 14.0821 27.1354 13.5124C27.3962 13.2275 27.666 13.0063 27.8726 12.8568C27.9758 12.782 28.0634 12.7245 28.127 12.6844C28.1906 12.6445 28.0497 12.7527 28.359 12.5392L29.7921 11.549L28.7856 10.1973C26.6708 7.36182 23.4472 6.97339 22.1625 6.97339L22.1625 6.97339ZM22.315 10.3108C22.5704 10.3108 23.5027 10.5574 24.4516 11.0779C24.4083 11.123 24.3752 11.1387 24.3318 11.186C23.3997 12.2043 22.4548 13.8075 22.4759 15.8664C22.5043 18.9896 24.2531 20.5214 25.7051 21.4491C25.4694 22.0339 25.3593 22.5242 24.6125 23.5105L24.6087 23.5139C24.0208 24.2942 23.4864 24.9874 23.0297 25.3894C22.5731 25.7913 22.3445 25.8828 21.9895 25.8828C21.4037 25.8828 21.1549 25.7756 20.4815 25.528C19.8081 25.2803 18.7435 24.9163 17.3646 24.9163C16.0161 24.9163 14.9648 25.2546 14.2963 25.5009C13.6486 25.7395 13.4005 25.8368 12.9193 25.8591C12.5873 25.8537 12.2415 25.7308 11.7294 25.3116C11.2064 24.8836 10.6239 24.1909 10.068 23.453L10.068 23.4496L10.0643 23.4463C9.05542 22.1221 8.08711 20.1043 7.69568 18.09C7.30424 16.0757 7.48747 14.1171 8.40663 12.6831L8.41411 12.673L8.41785 12.6662C9.28908 11.2703 11.0108 10.3176 12.5226 10.3176C13.0424 10.3176 13.6884 10.4972 14.4197 10.7636C15.1511 11.0301 15.8665 11.4598 17.1513 11.4598C18.4434 11.4598 19.13 11.0394 19.9128 10.7772C20.6955 10.5149 21.463 10.3108 22.315 10.3108L22.315 10.3108Z" id="Shape" fill="#FFFFFF" fill-rule="evenodd" stroke="none" />
  </g>
</svg>