<?xml version="1.0" encoding="utf-8"?>
<svg width="24px" height="24px" viewBox="0 0 24 24" version="1.1" xmlns:xlink="http://www.w3.org/1999/xlink" xmlns="http://www.w3.org/2000/svg">
  <defs>
    <filter id="filter_1">
      <feColorMatrix in="SourceGraphic" type="matrix" values="0 0 0 0 1 0 0 0 0 0.69803923 0 0 0 0 0 0 0 0 1 0" />
    </filter>
    <path d="M0 0L24 0L24 24L0 24L0 0Z" id="path_1" />
    <clipPath id="mask_1">
      <use xlink:href="#path_1" />
    </clipPath>
  </defs>
  <g id="Gmail-icon" filter="url(#filter_1)">
    <path d="M0 0L24 0L24 24L0 24L0 0Z" id="Background" fill="none" fill-rule="evenodd" stroke="none" />
    <g clip-path="url(#mask_1)">
      <path d="M2.64001 3.36002C1.45501 3.36002 0.485636 4.32752 0.480011 5.51252C0.480011 5.51252 0.480011 5.51439 0.480011 5.51627C0.480011 5.51814 0.480011 5.51814 0.480011 5.52002L0.480011 18.48C0.480011 19.6669 1.45314 20.64 2.64001 20.64L21.36 20.64C22.5469 20.64 23.52 19.6669 23.52 18.48L23.52 5.52002C23.52 5.51814 23.52 5.51814 23.52 5.51627C23.52 5.51439 23.52 5.51252 23.52 5.51252C23.5144 4.32752 22.545 3.36002 21.36 3.36002L2.64001 3.36002ZM2.29125 4.37628L12 11.145L21.7106 4.37628C22.2019 4.52441 22.5563 4.97066 22.56 5.51441C22.5581 5.61566 22.455 5.81816 22.305 5.98128C22.1531 6.14628 22.005 6.24941 22.005 6.24941L22.0031 6.25316L12 13.3332L1.99688 6.25316L1.995 6.24941C1.995 6.24941 1.84688 6.14628 1.695 5.98128C1.545 5.81816 1.44188 5.61566 1.44 5.51441C1.44375 4.97066 1.79813 4.52441 2.29125 4.37628L2.29125 4.37628ZM1.44 7.03314C1.44 7.03314 1.44375 7.03689 1.44375 7.03689L1.4475 7.03877L1.4475 7.04064L2.88 8.05314L2.88 19.68L2.64 19.68C1.9725 19.68 1.44 19.1475 1.44 18.48L1.44 7.03314ZM22.56 7.03314L22.56 18.48C22.56 19.1475 22.0275 19.68 21.36 19.68L21.12 19.68L21.12 8.05314L22.5525 7.04064L22.5525 7.03877C22.5525 7.03877 22.56 7.03314 22.56 7.03314L22.56 7.03314Z" id="Shape" fill="#FFFFFF" fill-rule="evenodd" stroke="none" />
    </g>
  </g>
</svg>