<?xml version="1.0" encoding="utf-8"?>
<svg width="26px" height="26px" viewBox="0 0 26 26" version="1.1" xmlns:xlink="http://www.w3.org/1999/xlink" xmlns="http://www.w3.org/2000/svg">
  <defs>
    <filter id="filter_1">
      <feColorMatrix in="SourceGraphic" type="matrix" values="0 0 0 0 1 0 0 0 0 0.69803923 0 0 0 0 0 0 0 0 1 0" />
    </filter>
    <path d="M0 0L26 0L26 26L0 26L0 0Z" id="path_1" />
    <clipPath id="mask_1">
      <use xlink:href="#path_1" />
    </clipPath>
  </defs>
  <g id="Google-Maps-icon" filter="url(#filter_1)">
    <path d="M0 0L26 0L26 26L0 26L0 0Z" id="Background" fill="none" fill-rule="evenodd" stroke="none" />
    <g clip-path="url(#mask_1)">
      <path d="M12.9112 7.59202C12.9415 7.59202 12.9697 7.58336 13 7.58336C14.6489 7.58336 15.9965 8.81619 16.2067 10.4076L19.8521 6.09269C19.0667 4.82736 17.9812 3.80361 16.7104 3.12003L12.9112 7.59202L12.9112 7.59202ZM13 14.0834C11.3523 14.0834 10.0057 12.8527 9.79336 11.2624L6.48053 15.1613C6.93336 15.899 7.43495 16.6151 7.93653 17.3204C8.31461 17.8534 8.68403 18.3777 9.02853 18.9031L13.1105 14.0714C13.0737 14.0736 13.0379 14.0834 13 14.0834L13 14.0834ZM10.1617 20.9203C10.4542 21.5768 10.6741 22.2517 10.7738 22.9656C10.9276 24.0782 11.8842 24.9167 13.0022 24.9167C14.1191 24.9167 15.0746 24.0858 15.2241 22.984C15.5036 20.9235 16.7473 19.1728 18.0635 17.3203C19.9388 14.6803 21.8682 11.9492 20.8347 8.28751L10.1617 20.9203L10.1617 20.9203ZM10.6643 6.89002L14.5394 2.3281C14.1917 2.25769 13.8407 2.20027 13.4821 2.17969C11.3468 2.05944 9.3199 2.75385 7.71765 4.12969L10.6643 6.89002L10.6643 6.89002ZM6.27358 5.7471C5.3755 7.08068 4.875 8.6656 4.875 10.2917C4.875 11.2797 5.08408 12.1962 5.41775 13.0661L9.26033 8.54318L6.27358 5.7471L6.27358 5.7471Z" id="Shape" fill="#FFFFFF" fill-rule="evenodd" stroke="none" />
    </g>
  </g>
</svg>