<?xml version="1.0" encoding="utf-8"?>
<svg width="25px" height="25px" viewBox="0 0 25 25" version="1.1" xmlns:xlink="http://www.w3.org/1999/xlink" xmlns="http://www.w3.org/2000/svg">
  <path d="M86.5187 -72.3005L93.5303 -79.3012Q93.7558 -79.5263 93.9329 -79.7911Q94.1101 -80.0559 94.2321 -80.3502Q94.3542 -80.6445 94.4164 -80.957Q94.4786 -81.2694 94.4786 -81.5881Q94.4786 -81.9067 94.4164 -82.2191Q94.3542 -82.5316 94.2321 -82.8259Q94.1101 -83.1202 93.9329 -83.385Q93.7558 -83.6498 93.5303 -83.8749L93.5289 -83.8764Q93.4163 -83.9888 93.2932 -84.0896Q93.1702 -84.1905 93.0378 -84.2788Q92.9055 -84.3671 92.7651 -84.442Q92.6248 -84.5169 92.4778 -84.5778Q92.3308 -84.6386 92.1785 -84.6847Q92.0262 -84.7309 91.8702 -84.7619Q91.7141 -84.7929 91.5558 -84.8085Q91.3975 -84.8241 91.2384 -84.8241Q91.0793 -84.8241 90.9209 -84.8085Q90.7626 -84.7929 90.6066 -84.7619Q90.4505 -84.7309 90.2982 -84.6847Q90.146 -84.6386 89.999 -84.5778Q89.852 -84.5169 89.7116 -84.442Q89.5713 -84.3671 89.4389 -84.2788Q89.3066 -84.1905 89.1835 -84.0896Q89.0605 -83.9888 88.9479 -83.8764L81.9363 -76.8757L75.062 -83.7392Q74.9494 -83.8516 74.8264 -83.9525Q74.7033 -84.0533 74.571 -84.1416Q74.4386 -84.2299 74.2983 -84.3048Q74.1579 -84.3798 74.0109 -84.4406Q73.8639 -84.5014 73.7117 -84.5476Q73.5594 -84.5937 73.4033 -84.6247Q73.2473 -84.6557 73.089 -84.6713Q72.9306 -84.6869 72.7715 -84.6869Q72.6124 -84.6869 72.4541 -84.6713Q72.2958 -84.6557 72.1397 -84.6247Q71.9837 -84.5937 71.8314 -84.5476Q71.6791 -84.5014 71.5321 -84.4406Q71.3851 -84.3798 71.2448 -84.3048Q71.1044 -84.2299 70.9721 -84.1416Q70.8397 -84.0533 70.7167 -83.9525Q70.5936 -83.8516 70.481 -83.7392L70.4796 -83.7378Q70.2542 -83.5127 70.077 -83.2479Q69.8998 -82.983 69.7778 -82.6888Q69.6558 -82.3944 69.5935 -82.082Q69.5313 -81.7695 69.5313 -81.4509Q69.5313 -81.1323 69.5935 -80.8198Q69.6558 -80.5073 69.7778 -80.213Q69.8998 -79.9187 70.077 -79.6539Q70.2542 -79.3891 70.4796 -79.164L77.3539 -72.3005L70.617 -65.5741Q70.3915 -65.349 70.2144 -65.0842Q70.0372 -64.8194 69.9152 -64.525Q69.7931 -64.2307 69.7309 -63.9183Q69.6687 -63.6058 69.6687 -63.2872Q69.6687 -62.9686 69.7309 -62.6561Q69.7931 -62.3436 69.9152 -62.0493Q70.0372 -61.755 70.2144 -61.4902Q70.3915 -61.2254 70.617 -61.0003L70.6184 -60.9989Q70.731 -60.8865 70.8541 -60.7856Q70.9771 -60.6848 71.1095 -60.5965Q71.2418 -60.5081 71.3821 -60.4332Q71.5225 -60.3583 71.6695 -60.2975Q71.8165 -60.2366 71.9688 -60.1905Q72.121 -60.1443 72.2771 -60.1133Q72.4331 -60.0823 72.5915 -60.0668Q72.7498 -60.0512 72.9089 -60.0512Q73.068 -60.0512 73.2263 -60.0668Q73.3847 -60.0823 73.5407 -60.1133Q73.6968 -60.1443 73.849 -60.1905Q74.0013 -60.2366 74.1483 -60.2975Q74.2953 -60.3583 74.4357 -60.4332Q74.576 -60.5081 74.7084 -60.5965Q74.8407 -60.6848 74.9637 -60.7856Q75.0868 -60.8865 75.1994 -60.9989L81.9363 -67.7253L88.8106 -60.8617Q88.9231 -60.7493 89.0462 -60.6485Q89.1692 -60.5476 89.3016 -60.4593Q89.4339 -60.371 89.5743 -60.2961Q89.7146 -60.2211 89.8616 -60.1603Q90.0086 -60.0995 90.1609 -60.0533Q90.3132 -60.0072 90.4692 -59.9762Q90.6253 -59.9452 90.7836 -59.9296Q90.9419 -59.914 91.101 -59.914Q91.2601 -59.914 91.4185 -59.9296Q91.5768 -59.9452 91.7328 -59.9762Q91.8889 -60.0072 92.0412 -60.0533Q92.1934 -60.0995 92.3404 -60.1603Q92.4874 -60.2211 92.6278 -60.2961Q92.7681 -60.371 92.9005 -60.4593Q93.0328 -60.5476 93.1559 -60.6485Q93.2789 -60.7493 93.3915 -60.8617L93.3929 -60.8631Q93.6184 -61.0882 93.7956 -61.3531Q93.9727 -61.6179 94.0948 -61.9122Q94.2168 -62.2065 94.279 -62.519Q94.3412 -62.8314 94.3412 -63.15Q94.3412 -63.4686 94.279 -63.7811Q94.2168 -64.0936 94.0948 -64.3879Q93.9727 -64.6822 93.7956 -64.947Q93.6184 -65.2118 93.3929 -65.4369L86.5187 -72.3005Z" id="Rectangle-Union" fill="#FFFFFF" fill-rule="evenodd" stroke="none" />
</svg>