<?xml version="1.0" encoding="utf-8"?>
<svg width="24px" height="24px" viewBox="0 0 24 24" version="1.1" xmlns:xlink="http://www.w3.org/1999/xlink" xmlns="http://www.w3.org/2000/svg">
  <defs>
    <filter id="filter_1">
      <feColorMatrix in="SourceGraphic" type="matrix" values="0 0 0 0 1 0 0 0 0 1 0 0 0 0 1 0 0 0 1 0" />
    </filter>
    <path d="M3.999 18L20.001 18Q20.0994 18 20.1959 17.9808Q20.2924 17.9616 20.3833 17.924Q20.4742 17.8863 20.556 17.8316Q20.6378 17.777 20.7074 17.7074Q20.777 17.6378 20.8316 17.556Q20.8863 17.4742 20.924 17.3833Q20.9616 17.2924 20.9808 17.1959Q21 17.0994 21 17.001L21 16.999Q21 16.9006 20.9808 16.8041Q20.9616 16.7076 20.924 16.6167Q20.8863 16.5258 20.8316 16.444Q20.777 16.3622 20.7074 16.2926Q20.6378 16.223 20.556 16.1684Q20.4742 16.1137 20.3833 16.076Q20.2924 16.0384 20.1959 16.0192Q20.0994 16 20.001 16L3.999 16Q3.90061 16 3.8041 16.0192Q3.7076 16.0384 3.6167 16.076Q3.5258 16.1137 3.44398 16.1684Q3.36217 16.223 3.2926 16.2926Q3.22303 16.3622 3.16836 16.444Q3.1137 16.5258 3.07604 16.6167Q3.03839 16.7076 3.0192 16.8041Q3 16.9006 3 16.999L3 17.001Q3 17.0994 3.0192 17.1959Q3.03839 17.2924 3.07604 17.3833Q3.1137 17.4742 3.16836 17.556Q3.22303 17.6378 3.2926 17.7074Q3.36217 17.777 3.44398 17.8316Q3.5258 17.8863 3.6167 17.924Q3.7076 17.9616 3.8041 17.9808Q3.90061 18 3.999 18ZM3.999 13L20.001 13Q20.0994 13 20.1959 12.9808Q20.2924 12.9616 20.3833 12.924Q20.4742 12.8863 20.556 12.8316Q20.6378 12.777 20.7074 12.7074Q20.777 12.6378 20.8316 12.556Q20.8863 12.4742 20.924 12.3833Q20.9616 12.2924 20.9808 12.1959Q21 12.0994 21 12.001L21 11.999Q21 11.9006 20.9808 11.8041Q20.9616 11.7076 20.924 11.6167Q20.8863 11.5258 20.8316 11.444Q20.777 11.3622 20.7074 11.2926Q20.6378 11.223 20.556 11.1684Q20.4742 11.1137 20.3833 11.076Q20.2924 11.0384 20.1959 11.0192Q20.0994 11 20.001 11L3.999 11Q3.90061 11 3.8041 11.0192Q3.7076 11.0384 3.6167 11.076Q3.5258 11.1137 3.44398 11.1684Q3.36217 11.223 3.2926 11.2926Q3.22303 11.3622 3.16836 11.444Q3.1137 11.5258 3.07604 11.6167Q3.03839 11.7076 3.0192 11.8041Q3 11.9006 3 11.999L3 12.001Q3 12.0994 3.0192 12.1959Q3.03839 12.2924 3.07604 12.3833Q3.1137 12.4742 3.16836 12.556Q3.22303 12.6378 3.2926 12.7074Q3.36217 12.777 3.44398 12.8316Q3.5258 12.8863 3.6167 12.924Q3.7076 12.9616 3.8041 12.9808Q3.90061 13 3.999 13ZM3 6.999L3 7.001Q3 7.09939 3.0192 7.19589Q3.03839 7.2924 3.07604 7.3833Q3.1137 7.4742 3.16836 7.55601Q3.22303 7.63782 3.2926 7.7074Q3.36217 7.77697 3.44398 7.83164Q3.5258 7.8863 3.6167 7.92395Q3.7076 7.96161 3.8041 7.9808Q3.90061 8 3.999 8L20.001 8Q20.0994 8 20.1959 7.9808Q20.2924 7.96161 20.3833 7.92395Q20.4742 7.8863 20.556 7.83164Q20.6378 7.77697 20.7074 7.7074Q20.777 7.63782 20.8316 7.55601Q20.8863 7.4742 20.924 7.3833Q20.9616 7.2924 20.9808 7.19589Q21 7.09939 21 7.001L21 6.999Q21 6.90061 20.9808 6.8041Q20.9616 6.7076 20.924 6.6167Q20.8863 6.52579 20.8316 6.44398Q20.777 6.36217 20.7074 6.2926Q20.6378 6.22303 20.556 6.16836Q20.4742 6.1137 20.3833 6.07604Q20.2924 6.03839 20.1959 6.0192Q20.0994 6 20.001 6L3.999 6Q3.90061 6 3.8041 6.0192Q3.7076 6.03839 3.6167 6.07604Q3.5258 6.1137 3.44398 6.16836Q3.36217 6.22303 3.2926 6.2926Q3.22303 6.36217 3.16836 6.44398Q3.1137 6.52579 3.07604 6.6167Q3.03839 6.7076 3.0192 6.8041Q3 6.90061 3 6.999Z" id="path_1" />
    <clipPath id="mask_1">
      <use xlink:href="#path_1" />
    </clipPath>
  </defs>
  <g id="iconnavigationmenu_24px" filter="url(#filter_1)">
    <path d="M3.999 18L20.001 18Q20.0994 18 20.1959 17.9808Q20.2924 17.9616 20.3833 17.924Q20.4742 17.8863 20.556 17.8316Q20.6378 17.777 20.7074 17.7074Q20.777 17.6378 20.8316 17.556Q20.8863 17.4742 20.924 17.3833Q20.9616 17.2924 20.9808 17.1959Q21 17.0994 21 17.001L21 16.999Q21 16.9006 20.9808 16.8041Q20.9616 16.7076 20.924 16.6167Q20.8863 16.5258 20.8316 16.444Q20.777 16.3622 20.7074 16.2926Q20.6378 16.223 20.556 16.1684Q20.4742 16.1137 20.3833 16.076Q20.2924 16.0384 20.1959 16.0192Q20.0994 16 20.001 16L3.999 16Q3.90061 16 3.8041 16.0192Q3.7076 16.0384 3.6167 16.076Q3.5258 16.1137 3.44398 16.1684Q3.36217 16.223 3.2926 16.2926Q3.22303 16.3622 3.16836 16.444Q3.1137 16.5258 3.07604 16.6167Q3.03839 16.7076 3.0192 16.8041Q3 16.9006 3 16.999L3 17.001Q3 17.0994 3.0192 17.1959Q3.03839 17.2924 3.07604 17.3833Q3.1137 17.4742 3.16836 17.556Q3.22303 17.6378 3.2926 17.7074Q3.36217 17.777 3.44398 17.8316Q3.5258 17.8863 3.6167 17.924Q3.7076 17.9616 3.8041 17.9808Q3.90061 18 3.999 18ZM3.999 13L20.001 13Q20.0994 13 20.1959 12.9808Q20.2924 12.9616 20.3833 12.924Q20.4742 12.8863 20.556 12.8316Q20.6378 12.777 20.7074 12.7074Q20.777 12.6378 20.8316 12.556Q20.8863 12.4742 20.924 12.3833Q20.9616 12.2924 20.9808 12.1959Q21 12.0994 21 12.001L21 11.999Q21 11.9006 20.9808 11.8041Q20.9616 11.7076 20.924 11.6167Q20.8863 11.5258 20.8316 11.444Q20.777 11.3622 20.7074 11.2926Q20.6378 11.223 20.556 11.1684Q20.4742 11.1137 20.3833 11.076Q20.2924 11.0384 20.1959 11.0192Q20.0994 11 20.001 11L3.999 11Q3.90061 11 3.8041 11.0192Q3.7076 11.0384 3.6167 11.076Q3.5258 11.1137 3.44398 11.1684Q3.36217 11.223 3.2926 11.2926Q3.22303 11.3622 3.16836 11.444Q3.1137 11.5258 3.07604 11.6167Q3.03839 11.7076 3.0192 11.8041Q3 11.9006 3 11.999L3 12.001Q3 12.0994 3.0192 12.1959Q3.03839 12.2924 3.07604 12.3833Q3.1137 12.4742 3.16836 12.556Q3.22303 12.6378 3.2926 12.7074Q3.36217 12.777 3.44398 12.8316Q3.5258 12.8863 3.6167 12.924Q3.7076 12.9616 3.8041 12.9808Q3.90061 13 3.999 13ZM3 6.999L3 7.001Q3 7.09939 3.0192 7.19589Q3.03839 7.2924 3.07604 7.3833Q3.1137 7.4742 3.16836 7.55601Q3.22303 7.63782 3.2926 7.7074Q3.36217 7.77697 3.44398 7.83164Q3.5258 7.8863 3.6167 7.92395Q3.7076 7.96161 3.8041 7.9808Q3.90061 8 3.999 8L20.001 8Q20.0994 8 20.1959 7.9808Q20.2924 7.96161 20.3833 7.92395Q20.4742 7.8863 20.556 7.83164Q20.6378 7.77697 20.7074 7.7074Q20.777 7.63782 20.8316 7.55601Q20.8863 7.4742 20.924 7.3833Q20.9616 7.2924 20.9808 7.19589Q21 7.09939 21 7.001L21 6.999Q21 6.90061 20.9808 6.8041Q20.9616 6.7076 20.924 6.6167Q20.8863 6.52579 20.8316 6.44398Q20.777 6.36217 20.7074 6.2926Q20.6378 6.22303 20.556 6.16836Q20.4742 6.1137 20.3833 6.07604Q20.2924 6.03839 20.1959 6.0192Q20.0994 6 20.001 6L3.999 6Q3.90061 6 3.8041 6.0192Q3.7076 6.03839 3.6167 6.07604Q3.5258 6.1137 3.44398 6.16836Q3.36217 6.22303 3.2926 6.2926Q3.22303 6.36217 3.16836 6.44398Q3.1137 6.52579 3.07604 6.6167Q3.03839 6.7076 3.0192 6.8041Q3 6.90061 3 6.999Z" id="-↳Color" fill="#000000" fill-rule="evenodd" stroke="none" />
  </g>
</svg>