<?xml version="1.0" encoding="utf-8"?>
<svg width="24px" height="24px" viewBox="0 0 24 24" version="1.1" xmlns:xlink="http://www.w3.org/1999/xlink" xmlns="http://www.w3.org/2000/svg">
  <defs>
    <filter id="filter_1">
      <feColorMatrix in="SourceGraphic" type="matrix" values="0 0 0 0 1 0 0 0 0 0.69803923 0 0 0 0 0 0 0 0 1 0" />
    </filter>
    <path d="M0 0L24 0L24 24L0 24L0 0Z" id="path_1" />
    <clipPath id="mask_1">
      <use xlink:href="#path_1" />
    </clipPath>
  </defs>
  <g id="Google-Mobile-icon" filter="url(#filter_1)">
    <path d="M0 0L24 0L24 24L0 24L0 0Z" id="Background" fill="none" fill-rule="evenodd" stroke="none" />
    <g clip-path="url(#mask_1)">
      <path d="M5.75999 0.480011C5.50874 0.480011 5.25186 0.568136 5.06999 0.750011C4.88811 0.931886 4.79999 1.18876 4.79999 1.44001L4.79999 22.56C4.79999 22.8113 4.88811 23.0681 5.06999 23.25C5.25186 23.4319 5.50874 23.52 5.75999 23.52L18.24 23.52C18.4912 23.52 18.7481 23.4319 18.93 23.25C19.1119 23.0681 19.2 22.8113 19.2 22.56L19.2 1.44001C19.2 1.18876 19.1119 0.931886 18.93 0.750011C18.7481 0.568136 18.4912 0.480011 18.24 0.480011L5.75999 0.480011ZM5.75999 1.44001L18.24 1.44001L18.24 22.56L5.75999 22.56L5.75999 1.44001ZM6.71999 2.40001L6.71999 13.92L17.28 13.92L17.28 2.40001L6.71999 2.40001ZM7.67999 3.36001L16.32 3.36001L16.32 12.96L7.67999 12.96L7.67999 3.36001ZM12 14.4C11.4694 14.4 11.04 14.8294 11.04 15.36C11.04 15.8906 11.4694 16.32 12 16.32C12.5306 16.32 12.96 15.8906 12.96 15.36C12.96 14.8294 12.5306 14.4 12 14.4L12 14.4ZM8.63999 16.8C7.57874 16.8 6.71999 17.6588 6.71999 18.72L6.71999 19.68C6.71999 20.7413 7.57874 21.6 8.63999 21.6L15.36 21.6C16.4212 21.6 17.28 20.7413 17.28 19.68L17.28 18.72C17.28 17.6588 16.4212 16.8 15.36 16.8L8.63999 16.8ZM8.63999 17.76L9.59999 17.76L9.59999 18.72L7.67999 18.72C7.67999 18.1481 8.06811 17.76 8.63999 17.76L8.63999 17.76ZM10.56 17.76L13.44 17.76L13.44 18.72L10.56 18.72L10.56 17.76ZM14.4 17.76L15.36 17.76C15.9319 17.76 16.32 18.1481 16.32 18.72L14.4 18.72L14.4 17.76ZM7.67999 19.68L9.59999 19.68L9.59999 20.64L8.63999 20.64C8.06811 20.64 7.67999 20.2519 7.67999 19.68L7.67999 19.68ZM10.56 19.68L13.44 19.68L13.44 20.64L10.56 20.64L10.56 19.68ZM14.4 19.68L16.32 19.68C16.32 20.2519 15.9319 20.64 15.36 20.64L14.4 20.64L14.4 19.68Z" id="Shape" fill="#FFFFFF" fill-rule="evenodd" stroke="none" />
    </g>
  </g>
</svg>