<?xml version="1.0" encoding="utf-8"?>
<svg width="24px" height="24px" viewBox="0 0 24 24" version="1.1" xmlns:xlink="http://www.w3.org/1999/xlink" xmlns="http://www.w3.org/2000/svg">
  <defs>
    <filter id="filter_1">
      <feColorMatrix in="SourceGraphic" type="matrix" values="0 0 0 0 1 0 0 0 0 0.69803923 0 0 0 0 0 0 0 0 1 0" />
    </filter>
    <path d="M0 0L24 0L24 24L0 24L0 0Z" id="path_1" />
    <clipPath id="mask_1">
      <use xlink:href="#path_1" />
    </clipPath>
  </defs>
  <g id="Phone-icon" filter="url(#filter_1)">
    <path d="M0 0L24 0L24 24L0 24L0 0Z" id="Background" fill="none" fill-rule="evenodd" stroke="none" />
    <g clip-path="url(#mask_1)">
      <path d="M6.71998 1.91531C4.07454 1.91531 1.91998 4.06987 1.91998 6.71531L1.91998 17.2753C1.91998 19.9208 4.07454 22.0753 6.71998 22.0753L17.28 22.0753C19.9254 22.0753 22.08 19.9208 22.08 17.2753L22.08 6.71531C22.08 4.06987 19.9254 1.91531 17.28 1.91531L6.71998 1.91531L6.71998 1.91531ZM6.71997 2.87531L17.28 2.87531C19.4067 2.87531 21.12 4.58859 21.12 6.71531L21.12 17.2753C21.12 19.402 19.4067 21.1153 17.28 21.1153L6.71997 21.1153C4.59326 21.1153 2.87997 19.402 2.87997 17.2753L2.87997 6.71531C2.87997 4.58859 4.59326 2.87531 6.71997 2.87531L6.71997 2.87531ZM8.66348 5.29687C7.68172 5.25445 6.93658 5.62748 6.46785 6.07594C6.23349 6.30016 6.06428 6.54009 5.94848 6.76406C5.83267 6.98804 5.7591 7.17269 5.7591 7.41281C5.7591 7.39142 5.75383 7.50369 5.75066 7.63406C5.7475 7.76444 5.74807 7.94018 5.76004 8.1525C5.78402 8.57714 5.85599 9.15153 6.04691 9.8325C6.42876 11.1945 7.28857 12.981 9.15379 14.8463C11.019 16.7115 12.8055 17.5712 14.1675 17.9531C14.8486 18.1441 15.4229 18.216 15.8475 18.24C16.0599 18.252 16.2347 18.2525 16.365 18.2494C16.4954 18.2462 16.6085 18.2409 16.5872 18.2409C16.8274 18.2409 17.012 18.1674 17.236 18.0516C17.46 17.9358 17.6999 17.7666 17.9241 17.5322C18.3726 17.0635 18.7456 16.3183 18.7032 15.3366C18.683 14.8683 18.4231 14.4537 18.0394 14.2078C17.7429 14.0178 17.2827 13.7229 16.6819 13.3388C15.9849 12.8934 15.0934 12.8616 14.3663 13.26L14.4075 13.2394L13.8422 13.4822L13.801 13.5113C13.6636 13.6077 13.4934 13.6256 13.3388 13.5609C12.9057 13.3798 12.2309 13.024 11.6035 12.3966C10.976 11.7691 10.6202 11.0943 10.4391 10.6613C10.3744 10.5066 10.3923 10.3365 10.4888 10.1991L10.5179 10.1578L10.7607 9.5925L10.74 9.63375C11.1383 8.90682 11.1074 8.01534 10.6613 7.31812C10.2771 6.71738 9.98221 6.25711 9.79223 5.96062C9.54635 5.57697 9.13171 5.31701 8.66348 5.29687L8.66348 5.29687ZM8.62217 6.25595C8.75682 6.26174 8.89585 6.34052 8.98405 6.47814C9.17423 6.77493 9.46928 7.23542 9.85311 7.83564C10.1078 8.23379 10.1257 8.75705 9.89811 9.17252L9.88686 9.19314L9.6553 9.73408L9.70311 9.64689C9.41943 10.0509 9.36241 10.5756 9.55311 11.0316C9.76945 11.5489 10.1832 12.3338 10.9247 13.0753C11.6662 13.8169 12.4511 14.2306 12.9684 14.4469C13.4244 14.6376 13.9491 14.5806 14.3531 14.2969L14.2659 14.3447L14.8069 14.1131L14.8275 14.1019C15.2428 13.8744 15.766 13.8933 16.1644 14.1478L16.1644 14.1469C16.7646 14.5307 17.2251 14.8258 17.5219 15.016C17.6595 15.1042 17.7383 15.2432 17.7441 15.3778C17.7756 16.1068 17.5224 16.5632 17.2303 16.8685C17.0843 17.0211 16.9259 17.1319 16.7953 17.1994C16.6647 17.2669 16.5398 17.281 16.5872 17.281C16.4991 17.281 16.4528 17.2867 16.3425 17.2894C16.2322 17.2921 16.0844 17.2922 15.9019 17.2819C15.5368 17.2612 15.033 17.1989 14.4262 17.0288C13.2127 16.6885 11.586 15.921 9.83249 14.1675C8.07898 12.414 7.31143 10.7871 6.97124 9.57377C6.80114 8.96708 6.73872 8.46312 6.71811 8.09814C6.70781 7.91565 6.70794 7.76779 6.71061 7.65752C6.7133 7.54724 6.71905 7.50094 6.71905 7.41283C6.71905 7.46023 6.73308 7.33531 6.80061 7.2047C6.86814 7.07409 6.97891 6.91574 7.13155 6.7697C7.43682 6.47764 7.89321 6.22445 8.62217 6.25595L8.62217 6.25595Z" id="Shape" fill="#FFFFFF" fill-rule="evenodd" stroke="none" />
    </g>
  </g>
</svg>