<?xml version="1.0" encoding="utf-8"?>
<svg width="10px" height="13px" viewBox="0 0 10 13" version="1.1" xmlns:xlink="http://www.w3.org/1999/xlink" xmlns="http://www.w3.org/2000/svg">
  <path d="M675.188 455.135L675.188 443.953Q675.188 443.888 675.2 443.824Q675.213 443.76 675.238 443.699Q675.263 443.639 675.299 443.584Q675.336 443.53 675.382 443.484Q675.428 443.438 675.482 443.401Q675.537 443.365 675.597 443.34Q675.658 443.315 675.722 443.302Q675.786 443.29 675.851 443.29L675.853 443.29Q675.919 443.29 675.983 443.302Q676.047 443.315 676.107 443.34Q676.168 443.365 676.222 443.401Q676.276 443.438 676.323 443.484Q676.369 443.53 676.405 443.584Q676.441 443.639 676.466 443.699Q676.491 443.76 676.504 443.824Q676.517 443.888 676.517 443.953L676.517 455.135Q676.517 455.2 676.504 455.264Q676.491 455.328 676.466 455.389Q676.441 455.449 676.405 455.503Q676.369 455.558 676.323 455.604Q676.276 455.65 676.222 455.687Q676.168 455.723 676.107 455.748Q676.047 455.773 675.983 455.786Q675.919 455.798 675.853 455.798L675.851 455.798Q675.786 455.798 675.722 455.786Q675.658 455.773 675.597 455.748Q675.537 455.723 675.483 455.687Q675.428 455.65 675.382 455.604Q675.336 455.558 675.299 455.503Q675.263 455.449 675.238 455.389Q675.213 455.328 675.2 455.264Q675.188 455.2 675.188 455.135Z" id="Rectangle-2" fill="#FFFFFF" fill-rule="evenodd" stroke="none" />
  <path d="M677.364 455.814L676.08 455.814Q675.992 455.814 675.906 455.797Q675.819 455.78 675.738 455.746Q675.657 455.712 675.583 455.663Q675.51 455.614 675.448 455.552Q675.385 455.49 675.337 455.416Q675.288 455.343 675.254 455.262Q675.22 455.181 675.203 455.094Q675.186 455.008 675.186 454.92L675.186 454.918Q675.186 454.83 675.203 454.743Q675.22 454.657 675.254 454.576Q675.288 454.494 675.337 454.421Q675.385 454.348 675.448 454.285Q675.51 454.223 675.583 454.174Q675.657 454.125 675.738 454.092Q675.819 454.058 675.906 454.041Q675.992 454.024 676.08 454.023L677.364 454.023Q677.452 454.023 677.538 454.041Q677.625 454.058 677.706 454.092Q677.787 454.125 677.861 454.174Q677.934 454.223 677.996 454.285Q678.058 454.348 678.107 454.421Q678.156 454.494 678.19 454.575Q678.224 454.657 678.241 454.743Q678.258 454.83 678.258 454.918L678.258 454.92Q678.258 455.008 678.241 455.094Q678.224 455.18 678.19 455.262Q678.156 455.343 678.107 455.416Q678.058 455.49 677.996 455.552Q677.934 455.614 677.861 455.663Q677.787 455.712 677.706 455.746Q677.625 455.779 677.538 455.797Q677.452 455.814 677.364 455.814Z" id="Rectangle-2-Copy" fill="#FFFFFF" fill-rule="evenodd" stroke="none" />
  <path d="M677.364 445.004L676.08 445.004Q675.992 445.004 675.906 444.987Q675.819 444.97 675.738 444.936Q675.657 444.902 675.583 444.854Q675.51 444.805 675.448 444.742Q675.385 444.68 675.337 444.607Q675.288 444.534 675.254 444.452Q675.22 444.371 675.203 444.285Q675.186 444.198 675.186 444.11L675.186 444.108Q675.186 444.02 675.203 443.934Q675.22 443.847 675.254 443.766Q675.288 443.685 675.337 443.611Q675.385 443.538 675.448 443.476Q675.51 443.414 675.583 443.365Q675.657 443.316 675.738 443.282Q675.819 443.248 675.906 443.231Q675.992 443.214 676.08 443.214L677.364 443.214Q677.452 443.214 677.538 443.231Q677.625 443.248 677.706 443.282Q677.787 443.316 677.861 443.365Q677.934 443.414 677.996 443.476Q678.058 443.538 678.107 443.611Q678.156 443.685 678.19 443.766Q678.224 443.847 678.241 443.934Q678.258 444.02 678.258 444.108L678.258 444.11Q678.258 444.198 678.241 444.285Q678.224 444.371 678.19 444.452Q678.156 444.534 678.107 444.607Q678.058 444.68 677.996 444.742Q677.934 444.805 677.861 444.854Q677.787 444.903 677.706 444.936Q677.625 444.97 677.538 444.987Q677.452 445.004 677.364 445.004Z" id="Rectangle-2-Copy-2" fill="#FFFFFF" fill-rule="evenodd" stroke="none" />
  <path d="M681.086 447L684.6 449.5L681.086 452L681.086 450.333L678.6 450.333L678.6 448.667L681.086 448.667L681.086 447Z" id="Triangle-Union" fill="#FFFFFF" fill-rule="evenodd" stroke="none" />
</svg>