<?xml version="1.0" encoding="utf-8"?>
<svg width="21px" height="21px" viewBox="0 0 21 21" version="1.1" xmlns:xlink="http://www.w3.org/1999/xlink" xmlns="http://www.w3.org/2000/svg">
  <defs>
    <filter id="filter_1">
      <feColorMatrix in="SourceGraphic" type="matrix" values="0 0 0 0 1 0 0 0 0 0.8509804 0 0 0 0 0 0 0 0 1 0" />
    </filter>
    <path d="M0 0L21 0L21 21L0 21L0 0Z" id="path_1" />
    <clipPath id="mask_1">
      <use xlink:href="#path_1" />
    </clipPath>
  </defs>
  <g id="Twitter-icon" filter="url(#filter_1)">
    <path d="M0 0L21 0L21 21L0 21L0 0Z" id="Background" fill="none" fill-rule="evenodd" stroke="none" />
    <g clip-path="url(#mask_1)">
      <path d="M18.375 5.61658C17.7957 5.87292 17.1727 6.04724 16.519 6.12414C17.1855 5.72424 17.6982 5.09106 17.9392 4.3374C17.3163 4.70654 16.6241 4.97571 15.8884 5.12183C15.2988 4.49377 14.458 4.099 13.53 4.099C11.7458 4.099 10.2975 5.54736 10.2975 7.33154C10.2975 7.58533 10.3257 7.83142 10.3821 8.06726C7.69556 7.93396 5.31409 6.64709 3.72217 4.69116C3.44275 5.16797 3.28381 5.72424 3.28381 6.31641C3.28381 7.43664 3.85291 8.42615 4.72192 9.00549C4.19128 8.98755 3.69397 8.84399 3.25818 8.60046C3.25818 8.61584 3.25818 8.62866 3.25818 8.64148C3.25818 10.2078 4.37073 11.5151 5.84985 11.8099C5.57812 11.8843 5.29358 11.9253 4.99878 11.9253C4.79114 11.9253 4.58606 11.9048 4.39123 11.8663C4.80139 13.1506 5.99597 14.0837 7.40845 14.1119C6.30359 14.9784 4.90906 15.4937 3.39661 15.4937C3.13513 15.4937 2.87878 15.4783 2.625 15.4475C4.05542 16.3652 5.75244 16.901 7.57764 16.901C13.5223 16.901 16.7728 11.9766 16.7728 7.70581C16.7728 7.56738 16.7677 7.42639 16.7626 7.28796C17.3932 6.83166 17.9418 6.26257 18.375 5.61658L18.375 5.61658Z" id="Shape" fill="#FFFFFF" stroke="none" />
    </g>
  </g>
</svg>